<?xml version="1.0" standalone="no"?>
<!DOCTYPE svg PUBLIC "-//W3C//DTD SVG 20010904//EN"
 "http://www.w3.org/TR/2001/REC-SVG-20010904/DTD/svg10.dtd">
<svg version="1.0" xmlns="http://www.w3.org/2000/svg"
 width="700.000000pt" height="700.000000pt" viewBox="0 0 700.000000 700.000000"
 preserveAspectRatio="xMidYMid meet">
<metadata>
Created by potrace 1.14, written by Peter Selinger 2001-2017
</metadata>
<g transform="translate(0.000000,700.000000) scale(0.100000,-0.100000)"
fill="#000000" stroke="none">
<path d="M691 6114 c-109 -24 -206 -115 -238 -222 -15 -52 -16 -262 -16 -2617
1 -2409 2 -2563 18 -2610 37 -106 123 -188 225 -216 34 -9 472 -12 1875 -12
1007 0 1850 3 1874 6 107 16 213 102 251 205 19 51 22 80 24 267 l1 210 81
140 c45 77 94 163 109 190 15 28 66 118 113 200 112 198 87 153 357 630 131
231 293 517 360 635 67 118 133 235 147 260 14 25 44 77 67 117 22 39 50 89
62 110 12 21 97 171 189 333 92 162 178 315 192 340 14 25 55 97 91 160 92
162 108 239 72 345 -34 99 -91 157 -205 212 -70 34 -278 132 -355 168 -67 31
-150 70 -335 157 -47 22 -116 55 -155 73 -38 18 -119 56 -180 85 -60 29 -137
65 -170 80 -33 15 -98 46 -145 68 -47 22 -133 62 -191 90 l-106 50 1 123 c1
142 -10 208 -47 272 -44 74 -129 137 -208 153 -59 12 -3705 10 -3758 -2z
m3356 -2829 c0 -1202 -3 -2186 -6 -2186 -15 -4 -2918 -6 -2932 -3 -14 4 -15
219 -14 2187 1 1200 3 2183 4 2185 0 1 664 2 1474 2 l1474 0 0 -2185z m763
1507 c36 -16 115 -53 175 -82 105 -50 184 -87 340 -160 74 -34 160 -75 338
-159 59 -27 107 -53 107 -56 0 -3 -30 -59 -67 -123 -36 -64 -75 -133 -86 -152
-10 -19 -34 -60 -52 -90 -18 -30 -46 -80 -62 -110 -16 -30 -66 -118 -110 -195
-83 -144 -120 -211 -158 -280 -21 -36 -103 -183 -355 -625 -48 -85 -100 -175
-114 -200 -15 -25 -31 -57 -37 -72 -6 -16 -14 -28 -18 -28 -4 0 -8 535 -8
1189 l0 1189 21 -8 c12 -4 50 -21 86 -38z"/>
</g>
</svg>
